<?xml version="1.0" standalone="no"?>
<!DOCTYPE svg PUBLIC "-//W3C//DTD SVG 20010904//EN"
 "http://www.w3.org/TR/2001/REC-SVG-20010904/DTD/svg10.dtd">
<svg version="1.0" xmlns="http://www.w3.org/2000/svg"
 width="1024.000000pt" height="1024.000000pt" viewBox="0 0 1024.000000 1024.000000"
 preserveAspectRatio="xMidYMid meet">

<g transform="translate(0.000000,1024.000000) scale(0.100000,-0.100000)"
fill="#000000" stroke="none">
<path d="M4825 8439 c-318 -25 -709 -120 -1000 -244 -443 -190 -789 -430
-1118 -777 -345 -365 -583 -765 -735 -1238 -247 -771 -188 -1624 165 -2360
225 -469 605 -917 1036 -1223 385 -273 862 -472 1320 -551 358 -62 831 -61
1178 3 638 119 1214 417 1683 871 504 489 830 1126 936 1835 27 181 38 549 21
729 -68 720 -349 1357 -835 1889 -681 745 -1665 1141 -2651 1066z m575 -254
c476 -55 905 -212 1315 -480 493 -323 904 -804 1124 -1317 264 -618 313 -1319
136 -1960 -251 -910 -921 -1643 -1823 -1994 -711 -277 -1541 -263 -2247 38
-551 234 -989 585 -1311 1050 -322 465 -488 940 -526 1506 -44 657 149 1346
525 1877 511 724 1302 1192 2167 1284 132 14 506 12 640 -4z"/>
<path d="M3004 6966 c-28 -28 -34 -42 -34 -75 0 -23 7 -55 15 -71 29 -57 42
-60 242 -60 101 0 183 -3 183 -7 0 -3 41 -223 91 -487 83 -441 124 -658 253
-1357 25 -135 46 -255 46 -267 0 -12 -55 -133 -122 -269 -114 -229 -123 -252
-123 -305 0 -46 5 -64 30 -99 17 -23 46 -50 65 -61 34 -18 86 -18 1432 -16
l1397 3 28 21 c16 12 34 39 41 63 13 38 12 45 -10 89 -18 38 -31 49 -62 60
-32 10 -304 12 -1343 10 -717 -2 -1302 -1 -1300 2 1 3 36 71 77 153 l75 147
1178 0 c1270 0 1223 -2 1261 51 9 13 60 157 112 319 141 437 218 671 364 1114
146 440 147 447 90 499 l-30 27 -1623 0 -1623 0 -43 233 c-23 127 -50 244 -58
258 -33 56 -48 59 -323 59 l-252 0 -34 -34z m1126 -768 c0 -7 11 -85 25 -173
13 -88 25 -168 25 -177 0 -17 -15 -18 -174 -18 -158 0 -175 2 -180 18 -5 15
-66 348 -66 358 0 2 83 4 185 4 141 0 185 -3 185 -12z m810 -178 l0 -190 -22
0 c-13 0 -126 -1 -253 -2 l-229 -1 -28 174 c-15 96 -27 182 -27 192 -1 16 19
17 279 17 l280 0 0 -190z m668 -1 l2 -186 -140 -6 c-78 -4 -174 -4 -215 0
l-75 6 0 189 0 188 213 -2 212 -3 3 -186z m1122 184 c0 -5 -28 -93 -61 -197
l-62 -188 -36 6 c-20 3 -190 6 -378 6 l-343 0 0 190 0 190 440 0 c242 0 440
-3 440 -7z m-2486 -778 c15 -93 29 -185 33 -202 l5 -33 -143 -1 c-79 0 -154
-2 -166 -3 -19 -2 -24 4 -33 48 -21 105 -67 356 -64 358 1 2 79 3 172 3 l170
0 26 -170z m693 -231 c-1 -2 -95 -4 -207 -4 l-205 -2 -22 149 c-12 81 -26 172
-31 200 l-9 53 236 2 236 3 3 -199 c1 -109 1 -200 -1 -202z m673 197 l1 -200
-123 -3 c-68 -2 -165 -2 -215 0 l-93 3 0 199 0 200 214 0 215 0 1 -199z m920
192 c0 -5 -27 -94 -61 -199 l-62 -191 -231 -6 c-127 -3 -252 -3 -278 0 l-47 6
-3 198 -3 199 343 0 c188 0 342 -3 342 -7z m-2206 -745 c9 -62 18 -121 19
-131 2 -16 -10 -18 -148 -19 l-150 0 -21 103 c-12 57 -22 116 -23 132 l-1 27
154 0 154 0 16 -112z m616 -20 l0 -133 -167 3 c-93 2 -170 6 -172 8 -3 3 -40
226 -41 247 0 4 86 7 190 7 l190 0 0 -132z m668 1 l-3 -131 -213 -2 -212 -1 0
133 0 132 215 0 216 0 -3 -131z m712 121 c0 -6 -18 -67 -41 -137 l-41 -125
-36 6 c-21 3 -108 6 -194 6 l-157 0 -3 130 -3 130 238 0 c158 0 237 -3 237
-10z"/>
<path d="M4133 3760 c-80 -26 -170 -107 -210 -188 -25 -51 -28 -68 -28 -157 0
-89 3 -106 27 -156 74 -149 239 -239 387 -212 114 22 199 78 261 174 117 181
49 424 -146 520 -86 43 -196 50 -291 19z"/>
<path d="M5863 3766 c-198 -64 -305 -266 -245 -462 34 -108 99 -181 209 -232
48 -22 73 -26 139 -27 73 0 87 3 156 38 143 70 212 180 212 337 0 71 -4 94
-25 140 -39 81 -99 144 -177 182 -56 28 -79 33 -147 35 -47 2 -97 -3 -122 -11z"/>
</g>
</svg>
